<?xml version="1.0" encoding="UTF-8"?>
<svg version="1.1" xmlns="http://www.w3.org/2000/svg" width="512" height="512">
<path d="M0 0 C0.94488785 -0.00705963 1.8897757 -0.01411926 2.86329651 -0.02139282 C41.96677384 -0.24733053 41.96677384 -0.24733053 58.76953125 3.203125 C60.28836914 3.50114014 60.28836914 3.50114014 61.83789062 3.80517578 C107.72863491 12.98194984 152.16580077 34.03366028 186.10546875 66.65625 C188.23025675 68.68757226 190.37342565 70.59221909 192.64453125 72.453125 C195.70527401 75.03492513 198.26008041 77.91922856 200.84375 80.97265625 C202.18350837 82.5243845 203.56490187 84.04072769 204.9765625 85.52734375 C217.60445544 98.84885278 227.66624165 114.32093498 236.76953125 130.203125 C237.19862793 130.95142578 237.62772461 131.69972656 238.06982422 132.47070312 C250.7662684 154.91182446 259.14680626 179.22942738 264.51953125 204.390625 C264.81778809 205.77785767 264.81778809 205.77785767 265.12207031 207.19311523 C268.41394507 223.3998108 269.14483399 239.33350461 269.08203125 255.828125 C269.0798761 256.84636353 269.07772095 257.86460205 269.07550049 258.91369629 C269.02580521 273.53559924 268.72014367 287.83446432 265.76953125 302.203125 C265.47151611 303.72196289 265.47151611 303.72196289 265.16748047 305.27148438 C257.79942663 342.11727272 243.01180395 376.86234183 220.76953125 407.203125 C220.34816895 407.78143066 219.92680664 408.35973633 219.49267578 408.95556641 C214.17873043 416.19921468 208.46677715 422.91314006 202.3125 429.44921875 C200.52322165 431.3869165 198.83300084 433.31456521 197.16796875 435.3515625 C195.25655729 437.62408752 193.47141354 439.50110689 191.20703125 441.390625 C188.81386585 443.41970958 186.48971987 445.47008134 184.21875 447.63671875 C170.63536095 460.58133155 155.01115426 470.89381705 138.76953125 480.203125 C138.02123047 480.63222168 137.27292969 481.06131836 136.50195312 481.50341797 C114.06083179 494.19986215 89.74322887 502.58040001 64.58203125 507.953125 C63.65720947 508.15196289 62.7323877 508.35080078 61.77954102 508.55566406 C45.57284545 511.84753882 29.63915164 512.57842774 13.14453125 512.515625 C11.61717346 512.51239227 11.61717346 512.51239227 10.05895996 512.50909424 C-4.56294299 512.45939896 -18.86180807 512.15373742 -33.23046875 509.203125 C-34.24302734 509.00444824 -35.25558594 508.80577148 -36.29882812 508.60107422 C-73.14461647 501.23302038 -107.88968558 486.4453977 -138.23046875 464.203125 C-138.80877441 463.7817627 -139.38708008 463.36040039 -139.98291016 462.92626953 C-147.25885775 457.58862937 -154.00403906 451.83841177 -160.578125 445.66796875 C-162.68757939 443.70763632 -164.81992817 441.84257817 -167.04296875 440.015625 C-170.12279949 437.40961438 -172.70149205 434.51009746 -175.3046875 431.43359375 C-176.64444587 429.8818655 -178.02583937 428.36552231 -179.4375 426.87890625 C-210.19643573 394.43046516 -229.72691032 351.35129033 -238.98046875 308.015625 C-239.17930664 307.09080322 -239.37814453 306.16598145 -239.58300781 305.21313477 C-242.87488257 289.0064392 -243.60577149 273.07274539 -243.54296875 256.578125 C-243.5408136 255.55988647 -243.53865845 254.54164795 -243.53643799 253.49255371 C-243.48674271 238.87065076 -243.18108117 224.57178568 -240.23046875 210.203125 C-240.03179199 209.19056641 -239.83311523 208.17800781 -239.62841797 207.13476562 C-230.43351083 161.15334236 -209.40413672 117.14906588 -176.9140625 83.0390625 C-174.68929883 80.6880022 -172.56825862 78.29938648 -170.48046875 75.828125 C-167.66994432 72.5841703 -164.63199308 69.79110768 -161.35546875 67.0234375 C-159.92981854 65.80220037 -158.5335819 64.545834 -157.16796875 63.2578125 C-116.39213167 24.88888247 -56.07221177 0.27991109 0 0 Z M-139.23046875 158.203125 C-137.97553922 161.96791359 -136.39949356 162.89693167 -133.29296875 165.328125 C-129.49855945 168.35386042 -125.81110413 171.42710226 -122.23046875 174.703125 C-118.81307503 177.81771168 -115.32524525 180.7949912 -111.73046875 183.703125 C-107.26770662 187.31344942 -103.00327342 191.08740429 -98.76171875 194.953125 C-96.14202065 197.28174553 -93.45531565 199.49875447 -90.73046875 201.703125 C-86.26770662 205.31344942 -82.00327342 209.08740429 -77.76171875 212.953125 C-75.14202065 215.28174553 -72.45531565 217.49875447 -69.73046875 219.703125 C-66.13569225 222.6112588 -62.64786247 225.58853832 -59.23046875 228.703125 C-55.91057389 231.72594921 -52.53282763 234.62824661 -49.04296875 237.453125 C-42.60334882 242.66831015 -36.37591472 248.11644252 -30.12695312 253.55664062 C-25.43106855 257.63350025 -20.69855752 261.66790708 -15.97314453 265.71044922 C-14.2015254 267.22791621 -12.43246096 268.7483127 -10.6640625 270.26953125 C-3.24267692 276.65027974 4.23030345 282.9618595 11.76953125 289.203125 C20.34455719 285.39421813 27.37848908 277.70508748 34.23828125 271.453125 C37.74752611 268.33379624 41.40115248 265.40563367 45.05078125 262.453125 C47.69100854 260.26810931 50.23682845 258.01141109 52.76953125 255.703125 C57.06944916 251.78421248 61.52872672 248.11141631 66.05078125 244.453125 C68.69100854 242.26810931 71.23682845 240.01141109 73.76953125 237.703125 C77.08942611 234.68030079 80.46717237 231.77800339 83.95703125 228.953125 C90.39665118 223.73793985 96.62408528 218.28980748 102.87304688 212.84960938 C105.84808314 210.26675091 108.83897185 207.70255586 111.83203125 205.140625 C112.40542236 204.64973389 112.97881348 204.15884277 113.56958008 203.65307617 C114.72483643 202.66427297 115.88019101 201.67558451 117.03564453 200.68701172 C119.94847171 198.19416976 122.85887186 195.69849734 125.76953125 193.203125 C126.93618643 192.2031116 128.10285309 191.20311159 129.26953125 190.203125 C130.13578125 189.460625 130.13578125 189.460625 131.01953125 188.703125 C132.76953125 187.203125 134.51953125 185.703125 136.26953125 184.203125 C136.84783691 183.7073999 137.42614258 183.2116748 138.02197266 182.70092773 C139.18036325 181.70809086 140.33889033 180.7154132 141.49755859 179.72290039 C144.54202849 177.11464152 147.58358031 174.50307721 150.62109375 171.88671875 C151.56855469 171.07170898 151.56855469 171.07170898 152.53515625 170.24023438 C153.74176626 169.20219488 154.94754586 168.16318905 156.15234375 167.12304688 C158.43990235 165.15650181 160.71280466 163.24368359 163.16796875 161.48828125 C163.69648438 161.06417969 164.225 160.64007813 164.76953125 160.203125 C164.76953125 159.543125 164.76953125 158.883125 164.76953125 158.203125 C161.22227104 156.59818844 158.46222769 155.95286269 154.57675171 155.95144272 C153.03026664 155.94361948 153.03026664 155.94361948 151.45253944 155.93563819 C149.76359345 155.94233035 149.76359345 155.94233035 148.04052734 155.94915771 C146.83921865 155.94603773 145.63790997 155.94291775 144.40019798 155.93970323 C141.06900541 155.93310508 137.73803828 155.93548132 134.4068594 155.94167566 C130.81308147 155.94619834 127.21932332 155.93921731 123.62554932 155.93371582 C116.58664721 155.92481821 109.54778774 155.92674547 102.50888395 155.9325411 C96.78869495 155.93705613 91.06851791 155.93767118 85.34832764 155.93549347 C84.5344925 155.935187 83.72065736 155.93488054 82.88216054 155.93456478 C81.22891887 155.93392534 79.57567719 155.93327691 77.92243552 155.9326196 C62.41655362 155.92691523 46.91069536 155.93347588 31.40481734 155.94422033 C18.09734035 155.95315594 4.78989824 155.95160393 -8.51757812 155.94238281 C-23.96762097 155.93168208 -39.4176431 155.92746456 -54.86768913 155.93360734 C-56.51488113 155.93424444 -58.16207313 155.93487319 -59.80926514 155.93549347 C-61.02497002 155.9359563 -61.02497002 155.9359563 -62.26523459 155.93642847 C-67.97917594 155.938156 -73.69310415 155.93523906 -79.40704346 155.93053436 C-86.36952789 155.92492772 -93.33196721 155.92643742 -100.29444647 155.93709585 C-103.8474434 155.94235548 -107.40036512 155.94440436 -110.95336151 155.93779755 C-114.80277192 155.93074776 -118.65205888 155.93916022 -122.50146484 155.94915771 C-124.19041083 155.94246555 -124.19041083 155.94246555 -125.91347694 155.93563819 C-127.45996202 155.94346143 -127.45996202 155.94346143 -129.03768921 155.95144272 C-130.37042909 155.95192978 -130.37042909 155.95192978 -131.730093 155.95242667 C-134.52343318 156.23249886 -136.68303324 157.05055311 -139.23046875 158.203125 Z M167.39453125 178.140625 C163.76755371 181.44210456 160.08491321 184.62147034 156.26953125 187.703125 C152.67475475 190.6112588 149.18692497 193.58853832 145.76953125 196.703125 C141.46961334 200.62203752 137.01033578 204.29483369 132.48828125 207.953125 C129.84805396 210.13814069 127.30223405 212.39483891 124.76953125 214.703125 C121.44963639 217.72594921 118.07189013 220.62824661 114.58203125 223.453125 C108.14241132 228.66831015 101.91497722 234.11644252 95.66601562 239.55664062 C92.69097936 242.13949909 89.70009065 244.70369414 86.70703125 247.265625 C86.13364014 247.75651611 85.56024902 248.24740723 84.96948242 248.75317383 C83.81422607 249.74197703 82.65887149 250.73066549 81.50341797 251.71923828 C78.59059079 254.21208024 75.68019064 256.70775266 72.76953125 259.203125 C71.60287607 260.2031384 70.43620941 261.20313841 69.26953125 262.203125 C68.69203125 262.698125 68.11453125 263.193125 67.51953125 263.703125 C61.10286458 269.203125 54.68619792 274.703125 48.26953125 280.203125 C47.69130615 280.6988501 47.11308105 281.1945752 46.51733398 281.70532227 C45.35840555 282.69848136 44.1990674 283.69116258 43.03930664 284.68334961 C40.00059547 287.28411001 36.97086018 289.89444675 33.953125 292.51953125 C33.32599609 293.06287109 32.69886719 293.60621094 32.05273438 294.16601562 C30.85735844 295.2020081 29.66448015 296.24089243 28.47460938 297.28320312 C22.95855675 302.05331269 18.30118808 305.37726735 10.76953125 305.203125 C3.54215071 303.29400561 -1.685659 298.00663225 -7.23046875 293.203125 C-7.81957031 292.69362305 -8.40867188 292.18412109 -9.015625 291.65917969 C-11.57057261 289.44693642 -14.12348681 287.23242975 -16.6706543 285.01123047 C-20.40894882 281.75660312 -24.18901641 278.57117413 -28.04296875 275.453125 C-32.4062966 271.92121413 -36.56885355 268.21605564 -40.71875 264.4375 C-43.23198107 262.20177967 -45.80358354 260.06934818 -48.41796875 257.953125 C-54.85595781 252.73926062 -61.08210441 247.29271247 -67.32958984 241.85400391 C-75.27652557 234.95223415 -83.29724774 228.13625214 -91.33862305 221.3449707 C-95.29532881 218.00094704 -99.23573087 214.63837815 -103.16796875 211.265625 C-103.74716064 210.76893311 -104.32635254 210.27224121 -104.9230957 209.76049805 C-107.89802916 207.20802082 -110.87023955 204.65242518 -113.83984375 202.09375 C-120.03004368 196.76598788 -126.2665439 191.51977754 -132.6171875 186.3828125 C-136.27358858 183.33307887 -139.75879184 180.10861458 -143.234375 176.85546875 C-145.0553646 174.99057158 -145.0553646 174.99057158 -147.23046875 175.203125 C-147.32395787 196.96939687 -147.39447044 218.73563557 -147.43771744 240.50206757 C-147.45833254 250.60886858 -147.48643307 260.71554475 -147.53222656 270.82226562 C-147.57212649 279.63247147 -147.59790921 288.44258689 -147.60682273 297.25288057 C-147.61203212 301.9168241 -147.62425421 306.58050897 -147.65338898 311.24436951 C-147.68060794 315.63728271 -147.68890068 320.02983152 -147.68289948 324.42282104 C-147.68399682 326.03203819 -147.69191216 327.64126795 -147.70729065 329.25041199 C-147.89161765 340.83780885 -147.89161765 340.83780885 -143.23046875 351.203125 C-138.64877017 354.84978305 -135.08928836 356.32566485 -129.2921648 356.33734608 C-128.26700695 356.34180392 -127.24184909 356.34626176 -126.18562585 356.35085469 C-125.05588253 356.35067033 -123.92613922 356.35048597 -122.76216125 356.35029602 C-121.56467811 356.35397271 -120.36719497 356.3576494 -119.13342446 356.3614375 C-115.80357091 356.37056653 -112.47376666 356.37517451 -109.14390528 356.37782681 C-105.55480662 356.38172946 -101.96572224 356.39130784 -98.37663269 356.40003967 C-89.7059156 356.41980535 -81.03519735 356.42987049 -72.36446336 356.43876746 C-68.28158653 356.44315026 -64.19871099 356.4485171 -60.11583519 356.45375633 C-46.54391022 356.47076883 -32.97198606 356.48526306 -19.40005207 356.49250507 C-15.87778535 356.49441498 -12.35551864 356.49633531 -8.83325195 356.49829102 C-7.9578062 356.49877476 -7.08236044 356.4992585 -6.18038603 356.4997569 C8.00161816 356.5080574 22.183538 356.53339454 36.36550536 356.56587169 C50.92472044 356.59894102 65.48389265 356.61695372 80.04314548 356.62014931 C88.2180786 356.62231455 96.39288874 356.63106508 104.56778526 356.65661049 C111.52989061 356.67831579 118.4918431 356.68636879 125.45397844 356.67664371 C129.0054022 356.67209844 132.55651057 356.67399795 136.10789108 356.69340515 C139.96082679 356.71427815 143.81332792 356.7040532 147.66630554 356.69087219 C148.78489525 356.70184144 149.90348496 356.71281068 151.05597132 356.72411233 C157.39795183 356.67169465 162.55794877 356.06186542 167.76953125 352.203125 C171.98612484 346.90535357 172.8947202 343.08301934 172.88978577 336.4264679 C172.89064019 335.73378427 172.89149462 335.04110065 172.89237493 334.32742661 C172.89402496 332.00121727 172.88851615 329.67507968 172.88305664 327.34887695 C172.88277464 325.68343101 172.88293275 324.01798494 172.88349915 322.35253906 C172.88378662 317.82599072 172.87789796 313.29946877 172.87092519 308.77292657 C172.86468334 304.04435372 172.86408719 299.31578031 172.86289978 294.58720398 C172.85978893 285.63059991 172.85157883 276.67400802 172.84155029 267.71740931 C172.83038154 257.52164663 172.82487678 247.32588338 172.81985486 237.13011611 C172.80939603 216.1544456 172.79180132 195.17878607 172.76953125 174.203125 C170.7122296 174.203125 168.78316348 176.85931608 167.39453125 178.140625 Z " fill="#FEFEFE" transform="translate(243.23046875,-0.203125)"/>
</svg>
